<?xml version="1.0" standalone="no"?>
<!DOCTYPE svg PUBLIC "-//W3C//DTD SVG 20010904//EN"
 "http://www.w3.org/TR/2001/REC-SVG-20010904/DTD/svg10.dtd">
<svg version="1.0" xmlns="http://www.w3.org/2000/svg"
 width="769.000000pt" height="769.000000pt" viewBox="0 0 769.000000 769.000000"
 preserveAspectRatio="xMidYMid meet">
<metadata>
Created by potrace 1.11, written by Peter Selinger 2001-2013
</metadata>
<g transform="translate(0.000000,769.000000) scale(0.100000,-0.100000)"
fill="#000000" stroke="none">
<path d="M3570 7674 c-707 -64 -1294 -265 -1855 -639 -208 -139 -390 -289
-580 -480 -618 -618 -988 -1375 -1102 -2260 -25 -199 -25 -701 0 -900 96 -739
367 -1384 823 -1955 138 -173 411 -446 584 -584 571 -456 1216 -727 1955 -823
199 -25 701 -25 900 0 739 96 1384 367 1955 823 173 138 446 411 584 584 454
569 728 1220 823 1955 25 199 25 701 0 900 -96 739 -367 1384 -823 1955 -138
173 -411 446 -584 584 -486 388 -1041 649 -1640 771 -249 51 -405 66 -710 70
-157 1 -305 1 -330 -1z m860 -979 c247 -66 454 -286 539 -573 21 -70 58 -275
86 -472 58 -408 122 -598 304 -904 226 -379 438 -807 530 -1070 129 -367 149
-767 55 -1116 -175 -656 -751 -1177 -1513 -1370 -369 -94 -710 -104 -1061 -34
-347 70 -718 247 -1010 480 -198 159 -417 412 -547 631 -211 359 -316 795
-284 1187 41 509 242 941 615 1325 129 132 201 193 426 361 209 157 426 370
562 553 53 71 144 210 204 310 155 263 217 351 319 453 132 132 286 215 461
249 92 17 231 13 314 -10z"/>
<path d="M3941 6364 c-47 -20 -120 -76 -121 -92 0 -27 30 -22 74 11 54 42 103
60 153 55 33 -3 38 0 41 20 3 21 0 22 -55 22 -32 -1 -74 -8 -92 -16z"/>
<path d="M4480 6182 c0 -10 17 -29 37 -43 45 -29 73 -74 88 -142 11 -52 21
-63 42 -49 10 6 9 20 -1 62 -16 68 -36 107 -73 141 -52 48 -93 62 -93 31z"/>
<path d="M3820 6124 c-14 -9 -35 -30 -48 -47 -21 -30 -21 -33 -6 -44 15 -11
22 -7 48 22 37 41 73 52 101 31 16 -11 20 -26 20 -73 0 -46 3 -58 17 -61 21
-4 33 51 25 106 -12 71 -93 105 -157 66z"/>
<path d="M4320 5931 c-34 -36 -55 -83 -42 -96 16 -15 41 -2 47 24 7 34 30 57
65 66 35 8 61 -22 67 -80 5 -35 10 -45 24 -45 15 0 19 8 19 39 0 83 -37 131
-102 131 -35 0 -47 -6 -78 -39z"/>
<path d="M3543 5919 c-23 -15 -41 -43 -71 -112 -87 -198 -104 -248 -98 -288 4
-23 0 -51 -10 -75 -35 -84 6 -177 91 -210 25 -9 44 -22 41 -28 -52 -121 -21
-186 111 -239 57 -23 73 -34 86 -62 9 -19 27 -41 40 -50 37 -24 167 -65 207
-65 35 0 77 21 93 46 6 10 13 10 35 -2 33 -17 150 -19 189 -2 15 6 51 12 78
13 134 4 194 35 213 108 6 22 16 33 36 38 61 17 101 81 90 147 -5 33 -1 45 25
83 l31 44 -13 187 c-11 156 -16 191 -32 208 -33 37 -78 43 -233 31 -144 -10
-174 -18 -202 -53 -13 -17 -20 -18 -65 -8 -77 16 -213 70 -240 96 -14 13 -25
32 -25 42 0 38 -53 77 -166 125 -123 52 -163 57 -211 26z"/>
<path d="M2941 4359 c-307 -60 -540 -306 -614 -649 -17 -77 -21 -132 -21 -295
-1 -221 11 -294 74 -453 147 -370 508 -708 1015 -953 136 -66 387 -159 427
-159 27 0 177 60 313 125 370 178 707 459 906 754 111 165 156 269 184 426 46
268 19 525 -76 724 -78 161 -245 294 -434 346 -93 26 -301 31 -410 10 -112
-21 -217 -61 -298 -114 -121 -78 -213 -75 -320 10 -158 126 -289 193 -439 223
-82 17 -234 19 -307 5z m147 -156 c86 -53 28 -208 -143 -379 -76 -76 -116
-109 -168 -134 -113 -55 -179 -43 -214 39 -39 92 59 273 209 386 76 57 122 81
191 99 56 15 88 12 125 -11z"/>
</g>
</svg>
